<svg xmlns="http://www.w3.org/2000/svg" width="410" height="404" viewBox="0 0 410 404" fill="none">
  <path d="M255.24 38.89l-37.42 80.8c-.77 1.66.89 3.38 2.6 2.64l29.3-12.68c1.71-.74 3.6.78 3.19 2.58l-22.26 97.92c-.42 1.84 1.77 3.2 3.26 1.92l5.38-4.71 53.53-132.34c.63-1.55-.95-3.1-2.49-2.39l-32.01 14.86c-1.55.72-3.2-.92-2.52-2.48l21.39-49.01c.67-1.53-.88-3.1-2.43-2.41l-16.14 7.3c-1.55.7-3.18-.93-2.5-2.47l7.49-17.12c.7-1.61-1-3.23-2.58-2.48l-16.3 7.61c-1.57.73-3.26-.92-2.54-2.51l.34-.79c1.24-2.87-1.99-5.59-4.54-3.98a11.85 11.85 0 0 0-4.31 5.19z" fill="url(#vite_paint0_linear)"/>
  <path d="M95.6 7.38l-92.95 153c-1.39 2.29.27 5.21 2.95 5.05l82.49-4.95c2.1-.13 3.82 1.73 3.44 3.8l-14.33 79.35c-.5 2.78 3 4.4 4.85 2.1L114 213.1c1.16-1.5 3.52-1.09 4.12.7l24.26 71.8c.8 2.36 4.13 2.17 4.61-.27l33.9-172.8c.42-2.13-1.5-4-3.6-3.4l-25.52 7.29c-1.88.54-3.63-1.2-3.07-3.07L168.7 3.83c.55-1.86-1.4-3.43-3.05-2.48L97.17 7.04a2.44 2.44 0 0 0-1.57.34 2.33 2.33 0 0 0-.57.49 2.4 2.4 0 0 0-.38.65 2.45 2.45 0 0 0 .95-1.14z" fill="url(#vite_paint1_linear)"/>
  <defs>
    <linearGradient id="vite_paint0_linear" x1="238.39" y1="0" x2="288.22" y2="196.01" gradientUnits="userSpaceOnUse">
      <stop stop-color="#41D1FF"/>
      <stop offset="1" stop-color="#BD34FE"/>
    </linearGradient>
    <linearGradient id="vite_paint1_linear" x1="26.5" y1="12.47" x2="204.94" y2="259.66" gradientUnits="userSpaceOnUse">
      <stop stop-color="#FFEA83"/>
      <stop offset=".08" stop-color="#FFDD35"/>
      <stop offset="1" stop-color="#FFA800"/>
    </linearGradient>
  </defs>
</svg>
